<svg width="192" height="229" viewBox="0 0 192 229" fill="none" xmlns="http://www.w3.org/2000/svg">
<path d="M28.7132 129.618C28.7132 135.799 23.6172 140.926 14.1633 140.926C4.70938 140.926 2.88186 138.678 0 135.904L4.77967 128.354C3.97134 135.658 10.1568 139.978 16.4828 139.978C22.8089 139.978 24.2146 135.728 24.2146 132.427C24.2146 127.23 20.3136 125.79 13.9173 124.28C3.65504 121.857 1.08949 116.73 1.08949 112.34C1.08949 106.019 6.46661 101.946 14.9365 101.946C23.4063 101.946 25.2338 104.088 28.0805 106.827L23.2657 114.447C24.1092 107.213 18.4861 102.823 12.4763 102.823C6.46661 102.823 5.72857 106.054 5.72857 109.531C5.72857 115.466 10.8245 117.257 16.4477 118.521C26.8153 120.944 28.7483 125.86 28.7483 129.653L28.7132 129.618Z" fill="#652A0E"/>
<path d="M66.845 139.416V139.626L58.3752 140.434V135.412C55.6339 137.519 51.4517 140.575 46.426 140.575C41.4003 140.575 38.905 138.924 38.905 130.812V119.294C38.905 116.414 38.413 115.395 36.0232 114.307V114.201H44.7039L44.3876 117.889V130.707C44.3876 136.747 47.164 138.222 49.6593 138.222C53.3143 138.222 55.8799 136.185 58.4103 134.253V119.294C58.4103 116.414 57.9183 115.395 55.5285 114.307V114.201H64.2092L63.8929 117.889V138.468C64.6309 138.959 66.0367 139.31 66.8802 139.416H66.845Z" fill="#652A0E"/>
<path d="M111.479 136.466V123.718C111.479 117.678 109.054 116.203 106.664 116.203C104.274 116.203 101.357 118.31 98.8267 120.171C99.0025 121.12 99.1079 122.314 99.1079 123.613V135.202C99.1079 138.081 99.5999 139.1 101.217 140.188H93.3442L93.6605 136.501V123.753C93.6605 117.713 91.2355 116.238 88.8456 116.238C86.4558 116.238 83.7497 118.17 81.2896 120.031V135.202C81.2896 138.081 81.7816 139.1 83.3982 140.188H75.5258L75.8421 136.501V115.922C75.1041 115.431 73.6983 115.079 72.5737 114.974V114.763L81.5707 113.956L81.2896 117.924V118.837C83.9254 116.8 87.5804 113.921 91.9032 113.921C96.226 113.921 97.4209 114.939 98.6159 119.223C101.287 117.257 105.153 113.921 109.757 113.921C114.361 113.921 116.996 115.571 116.996 123.683V135.272C116.996 138.152 117.489 139.17 119.105 140.259H111.233L111.549 136.571L111.479 136.466Z" fill="#652A0E"/>
<path d="M155.093 126.387C155.093 134.043 149.611 140.539 138.083 140.539C126.556 140.539 131.125 140.223 126.38 138.713V138.643C128.208 138.222 128.946 137.309 128.946 133.832V104.825C128.946 102.683 127.821 102.964 124.447 103.982V103.666L134.709 98.8903L134.428 101.032V115.676C136.185 114.588 138.61 113.85 141.738 113.85C149.997 113.85 155.093 119.013 155.093 126.387ZM149.365 129.513C149.365 121.541 145.499 115.15 139.348 115.15C133.198 115.15 135.764 115.782 134.463 116.765V137.063C136.115 138.573 138.259 139.486 141.106 139.486C146.272 139.486 149.365 136.606 149.365 129.513Z" fill="#652A0E"/>
<path d="M191.854 140.645V140.82L182.963 139.17C182.963 139.17 183.033 139.17 183.033 139.1C181.311 140.013 179.167 140.54 176.637 140.54C169.081 140.54 163.704 135.939 163.704 128.213C163.704 120.488 169.186 113.85 180.397 113.85C191.608 113.85 186.899 114.482 189.781 115.817V135.764C189.781 138.643 190.273 139.556 191.89 140.645H191.854ZM179.835 138.994C181.803 138.994 183.103 138.292 184.193 137.063C184.263 136.571 184.298 135.939 184.298 135.096V117.783C182.682 116.063 180.608 114.904 177.797 114.904C172.384 114.904 169.362 119.048 169.362 125.299C169.362 131.549 173.86 139.029 179.835 139.029V138.994Z" fill="#652A0E"/>
<path d="M71.4489 156.834V188.229C71.4489 190.16 73.3116 190.757 75.5257 191.003V191.284H61.3624V191.003C63.5765 190.722 65.4392 190.16 65.4392 188.229V173.234H45.6528V188.229C45.6528 190.16 47.5154 190.757 49.7296 191.003V191.284H35.5663V191.003C37.7804 190.722 39.643 190.16 39.643 188.229V156.834C39.643 154.903 37.7804 154.306 35.5663 154.06V153.779H49.7296V154.06C47.5154 154.341 45.6528 154.903 45.6528 156.834V172.321H65.4392V156.834C65.4392 154.903 63.5765 154.306 61.3624 154.06V153.779H75.5257V154.06C73.3116 154.341 71.4489 154.903 71.4489 156.834Z" fill="#652A0E"/>
<path d="M84.4173 187.597V167.018C83.6793 166.526 82.2735 166.175 81.1488 166.07V165.859L90.1459 165.051L89.8647 169.02V186.332C89.8647 189.212 90.3567 190.23 91.9734 191.319H84.101L84.4173 187.632V187.597ZM83.5035 156.588C83.5035 154.727 84.9445 153.252 86.8774 153.252C88.8104 153.252 90.1459 154.692 90.1459 156.588C90.1459 158.484 88.7049 159.924 86.8774 159.924C85.0499 159.924 83.5035 158.484 83.5035 156.588Z" fill="#652A0E"/>
<path d="M110.424 191.073V191.284H101.427L101.919 187.948V155.956C101.919 153.814 100.795 154.095 97.4209 155.113V154.797L107.683 150.021L107.402 152.163V186.087C107.402 188.966 107.789 190.476 110.46 191.073H110.424Z" fill="#652A0E"/>
<path d="M128.067 191.073V191.284H119.07L119.562 187.948V155.956C119.562 153.814 118.437 154.095 115.063 155.113V154.797L125.326 150.021L125.045 152.163V186.087C125.045 188.966 125.431 190.476 128.102 191.073H128.067Z" fill="#652A0E"/>
<path d="M135.096 188.51L138.224 183.348H138.329C138.259 188.018 143.32 190.792 147.572 190.792C151.825 190.792 152.457 188.861 152.457 186.332C152.457 183.804 149.927 181.451 145.639 180.819C137.415 179.59 135.764 175.446 135.764 172.567C135.764 167.755 140.262 164.946 146.131 164.946C152 164.946 153.758 166.281 155.831 168.001L152.352 173.023H152.246C152.528 168.458 147.888 165.719 144.198 165.719C140.508 165.719 139.805 168.142 139.805 170.003C139.805 173.655 143.285 174.779 146.729 175.376C154.285 176.605 156.323 179.976 156.323 183.312C156.323 188.088 152.176 191.635 145.534 191.635C138.891 191.635 137.38 190.231 135.131 188.475L135.096 188.51Z" fill="#652A0E"/>
<path d="M97.491 80.8049C97.4559 81.0156 97.0342 81.1561 96.7882 81.2614C96.753 81.2614 96.507 81.0156 96.507 80.9103C96.2258 76.9069 96.2961 72.9387 96.7179 68.9704C96.8233 68.6543 97.0693 68.5139 97.3856 68.4436C97.6316 68.4436 97.8776 68.7597 98.0885 68.9704C98.1588 69.1109 98.1939 69.2865 98.1939 69.462C98.2994 70.6209 98.4399 71.7798 98.5102 72.4821C98.5454 75.3266 98.2291 78.1009 97.5262 80.84M64.2794 49.7612C63.7874 49.6559 63.3305 49.4452 62.9087 49.1642C62.6276 48.9535 62.487 48.7077 62.4519 48.3565C62.4519 48.1107 62.8033 47.8649 63.0493 47.6893C63.1899 47.6191 63.3656 47.584 63.5413 47.584C66.5989 47.5488 69.6214 47.303 72.6087 46.8465C74.1199 46.706 75.6311 46.706 77.1423 46.7763C77.2829 46.7763 77.5641 46.9518 77.5641 46.987C77.5289 47.303 77.5289 47.7244 77.318 47.9C75.1742 49.7963 72.5384 50.288 69.7971 50.3582C69.3051 50.3582 68.7779 50.288 68.2859 50.2178C66.9504 50.1124 65.6149 50.007 64.2794 49.7963M95.6635 10.184C95.769 9.3412 95.9447 8.56862 96.261 7.79604C96.3313 7.62046 96.7882 7.5151 97.0693 7.47999C97.1748 7.47999 97.3505 7.62046 97.491 7.72581C97.6316 7.83116 97.7019 7.97163 97.7722 8.14721C98.6508 10.6054 99.1428 13.169 99.1428 15.8028C99.1428 18.4366 98.7563 20.965 97.9128 23.4584C97.7371 23.95 97.491 24.3714 97.1396 24.7226C96.8936 24.9333 96.5773 25.0035 96.261 24.9333C95.9447 24.7928 95.7338 24.5821 95.6635 24.2661C95.523 23.7744 95.4527 23.2828 95.4527 22.756V16.7158H95.3472C95.4527 14.5737 95.4878 12.3613 95.6635 10.184ZM130.808 34.5905C131.265 34.8013 131.652 35.1173 131.933 35.5036C132.073 35.8197 132.038 36.1006 131.827 36.3464C131.441 36.6976 131.019 36.9434 130.527 37.0488C126.028 37.8213 121.53 38.5588 117.067 39.2963C116.399 39.2963 115.731 39.2611 115.099 39.0856C114.677 39.0153 114.396 38.2427 114.677 37.8565C114.923 37.4351 115.274 37.0488 115.661 36.7327C117.875 35.3982 120.265 34.6257 122.83 34.3798C123.99 34.2394 125.15 34.2394 125.501 34.2394C127.856 33.9584 129.402 33.9584 130.843 34.5554M91.6922 24.547C91.6922 24.7577 91.2704 25.1089 91.0244 25.144C90.673 25.144 90.3918 24.9684 90.181 24.7226C89.935 24.4768 89.7592 24.1958 89.6538 23.8798C89.2672 22.9316 88.9509 21.9834 88.7049 21.0002C87.8614 17.5235 87.7208 14.0118 88.2832 10.465C88.494 9.09538 89.0212 7.86628 89.8647 6.77764C90.0404 6.4967 90.2864 6.286 90.6027 6.11041C90.919 5.93483 91.2353 5.86459 91.5516 5.86459C92.0788 5.86459 92.5708 6.56694 92.5005 7.40975C92.4302 8.74421 92.2545 10.0787 92.1842 11.4482C92.1139 12.7827 92.0788 14.1172 92.0085 15.4867C91.9382 18.5068 91.8328 21.5269 91.6922 24.547ZM92.9925 80.9103C92.8871 81.5775 92.6762 82.1745 92.3248 82.7364C92.1491 83.0876 91.7976 83.0876 91.4462 82.8066C91.3056 82.7013 91.2002 82.5959 91.0947 82.4554C90.673 81.8233 90.2864 81.121 89.9701 80.4186C89.6538 79.7163 89.3726 78.9788 89.1618 78.2414C88.9509 77.5039 88.8103 76.7313 88.7049 75.9588C88.5995 75.1862 88.5643 74.4136 88.5995 73.641C88.6346 72.8684 88.7049 72.0958 88.8455 71.3233C88.986 70.5507 89.1618 69.8132 89.4078 69.0758C89.6538 68.3383 89.9701 67.6359 90.3215 66.9336C90.673 66.2312 91.0947 65.5991 91.5516 64.967C91.657 64.8266 91.7976 64.7563 92.0085 64.7563C92.2896 64.8968 92.7114 65.0724 92.7465 65.2831C92.9222 66.2664 93.0277 67.2496 93.0628 68.2681C93.1331 69.9537 93.0628 71.6393 93.0628 73.2898H92.9925C92.9925 75.8183 93.0628 78.3116 92.9925 80.84M114.36 44.3532C114.114 44.1073 114.009 43.8264 114.044 43.4752C114.044 43.2294 114.36 42.9485 114.571 42.7378C114.677 42.6324 114.888 42.6324 115.028 42.5973C118.718 42.211 122.373 41.8949 126.064 41.4735C127.399 41.3331 128.699 40.9819 130.035 40.8063C130.843 40.7361 131.652 40.7361 132.495 40.8063C132.601 40.8063 132.671 40.8063 132.741 40.8765C132.811 40.9117 132.882 40.9819 132.952 41.0521C133.022 41.1224 133.057 41.1926 133.093 41.298C133.093 41.3682 133.093 41.4735 133.093 41.5789C133.093 41.7545 133.093 41.9301 133.022 42.0354C130.176 45.1257 126.767 47.0572 122.373 46.8465C119.492 46.7763 116.715 46.3197 114.396 44.3883L114.36 44.3532ZM60.1675 43.3348C59.9566 43.2294 59.7809 43.0538 59.7106 42.808C59.6403 42.5622 59.6403 42.3515 59.7106 42.1057C59.816 41.9652 59.8512 41.7896 59.9566 41.6842C61.995 39.8581 64.3497 38.5588 67.0207 37.8213C67.5127 37.6458 68.0047 37.5755 68.4967 37.5404C70.0431 37.5053 71.5192 37.716 72.9953 38.2076C74.4362 38.6993 75.7717 39.4367 76.9666 40.42C77.1072 40.5254 77.2126 40.6658 77.2829 40.8063C77.4235 41.1224 77.4586 41.4384 77.4235 41.7545C77.318 42.0705 77.1072 42.2812 76.826 42.3866C72.9953 43.1592 69.1645 43.7913 65.7906 43.4401C63.5765 43.5455 61.8895 43.8615 60.2026 43.3348M96.4719 46.7411C96.4719 46.4602 96.5773 46.1441 96.7179 45.8983C96.8585 45.6174 97.0342 45.4067 97.245 45.196C97.4559 44.9853 97.7019 44.8097 97.9831 44.7043C98.2642 44.599 98.5454 44.5288 98.8617 44.4936C101.041 44.2127 103.29 44.2478 105.399 43.721C106.242 43.5103 107.05 43.4752 107.894 43.6859C108.737 43.8966 109.475 44.2829 110.108 44.8448C110.916 45.4418 111.725 46.0739 112.568 46.6358C114.993 48.2863 117.629 49.3398 120.546 49.7963C121.671 50.007 122.795 50.0773 123.955 50.0422C125.115 50.007 126.239 49.8315 127.329 49.5505C128.453 49.2696 129.508 48.8833 130.527 48.3916C131.546 47.9 132.53 47.303 133.444 46.6007C135.166 45.2311 136.783 43.7562 138.294 42.1408C138.61 41.7545 138.891 41.3331 139.067 40.8414C139.243 40.3498 139.348 39.8581 139.348 39.3665C139.348 38.8749 139.278 38.3481 139.102 37.8916C138.927 37.3999 138.681 36.9785 138.364 36.5922C137.556 35.7494 136.677 34.9417 135.764 34.2043C134.815 33.3614 133.725 32.6942 132.565 32.2377C131.37 31.746 130.176 31.4651 128.875 31.3598C126.521 31.1491 124.131 31.2193 121.776 31.6056C119.421 31.9567 117.137 32.5889 114.958 33.5019C113.517 34.134 112.322 35.0471 111.303 36.2059C110.389 37.2243 109.546 38.2779 108.597 39.2611C108.245 39.6474 107.859 39.9635 107.402 40.2093C106.945 40.4551 106.453 40.5605 105.926 40.5956C103.395 40.5956 100.865 40.5956 98.3345 40.5605C97.9128 40.4903 97.5262 40.3498 97.2099 40.0337C96.8936 39.7528 96.6827 39.4016 96.5773 38.9802C95.9095 35.6792 95.9798 32.5186 98.2642 29.8146C98.3697 29.6741 98.4751 29.5337 98.5454 29.3932C102.938 22.2644 103.395 14.7844 100.373 7.05858C99.4943 4.98666 98.1939 3.26591 96.4016 1.86122C96.0853 1.58028 95.7338 1.33446 95.3472 1.15887C94.9606 0.983283 94.574 0.877931 94.1523 0.807697C93.7306 0.772579 93.3088 0.772581 92.8871 0.842816C92.4654 0.913051 92.0788 1.05352 91.6922 1.26422C87.9669 2.94985 85.9636 5.96994 85.3662 9.83284C85.085 12.1857 85.0499 14.5386 85.2256 16.9265C85.2959 18.9633 85.6825 20.965 86.3502 22.8965C87.018 24.8279 87.9669 26.6189 89.1969 28.2694C90.1107 29.4985 90.919 30.7628 91.6922 32.0972C92.3248 33.221 92.7465 34.415 92.9574 35.6441C93.1683 36.9083 93.1683 38.1725 92.9574 39.4367C92.852 40.2093 92.0788 41.1575 91.3407 41.1926C89.3023 41.3331 87.2991 41.4735 85.2607 41.5438C84.2064 41.5438 83.2575 41.1926 82.4843 40.4903C81.1488 39.4719 79.8133 38.4535 78.4778 37.3999C75.0688 34.8013 71.2029 33.9233 67.0207 34.2394C66.0015 34.3447 65.0174 34.5906 64.1037 35.012C60.2026 36.8029 56.9342 39.4367 54.2983 42.8431C53.0682 44.3883 53.244 46.1793 54.72 47.3381C55.8798 48.2863 57.1802 49.094 58.4102 49.9719C63.4711 53.5539 69.0239 54.2562 74.8579 52.5004C78.2669 51.482 81.6057 50.1475 83.4683 46.7763C83.6792 46.39 83.9604 46.109 84.347 45.8983C84.7336 45.6876 85.1201 45.5823 85.5419 45.5472C87.3694 45.4067 89.2672 45.3013 91.0947 45.2662C91.3407 45.2662 91.5867 45.3013 91.8328 45.4067C92.0788 45.512 92.2896 45.6525 92.4654 45.8281C92.6411 46.0037 92.7817 46.2144 92.8871 46.4602C92.9925 46.706 93.0277 46.9518 93.0277 47.1977C93.0277 49.0238 92.7817 50.885 92.7817 52.7462C92.7817 56.4335 92.0085 59.8048 89.2321 62.4386C86.1042 67.3199 84.6633 72.5524 85.9285 78.3467C86.9125 82.9471 89.4429 86.7046 92.1842 90.3568C92.2896 90.4973 92.4302 90.6027 92.5708 90.708C92.7817 90.8836 93.0628 91.0592 93.344 91.1294C93.6251 91.1996 93.9063 91.2699 94.2226 91.2699C94.5038 91.2699 94.8201 91.1996 95.0661 91.0943C95.3121 90.9889 95.5932 90.8485 95.8041 90.6378C96.4367 90.0759 96.9639 89.4087 97.4559 88.7414C98.686 86.8802 99.5997 84.9137 100.197 82.7715C101.181 79.33 101.638 75.8534 101.603 72.2714C101.498 65.8801 101.779 67.2848 98.5805 62.4035C98.4751 62.263 98.4048 62.1225 98.2642 61.9821C96.7179 60.2262 96.2258 58.1192 96.1204 55.8716C96.0501 54.5372 96.1204 53.1676 96.1204 51.5873C96.2258 50.1475 96.3664 48.4619 96.5421 46.7763M129.191 7.83116L128.945 7.97163C129.086 9.97331 128.032 11.6238 126.802 12.9232C124.306 15.5921 121.776 18.3664 118.648 20.3329C118.051 20.649 117.453 20.8948 116.821 21.1055L116.891 21.1757C116.961 20.6841 117.067 20.1925 117.242 19.7008C117.348 19.3496 117.559 19.0687 117.805 18.8229C121.389 15.276 124.658 11.378 128.594 8.18233C128.735 8.1121 128.91 8.04186 129.051 8.00674L129.227 7.79604L129.191 7.83116ZM124.412 6.32112C124.482 6.21576 124.728 6.11041 124.798 6.18065C125.115 6.35623 125.08 6.60205 124.693 6.77764C124.412 6.88299 124.131 6.95323 123.85 6.98835C123.779 7.47999 123.674 7.93651 123.463 8.39304C121.249 11.7643 118.508 14.6088 115.274 16.9617C115.134 17.0319 114.958 17.067 114.782 17.1021L114.642 17.348L114.852 17.1724C115.309 14.5386 116.891 12.572 118.613 10.7108C120.124 9.09538 121.6 7.47999 123.92 7.02346C124.096 6.77764 124.236 6.53182 124.447 6.286L124.412 6.32112ZM133.901 2.6338C133.866 2.31774 133.76 1.96657 133.69 1.65051C133.62 1.40469 133.479 1.19399 133.339 0.983283C133.198 0.772579 132.987 0.596993 132.776 0.456523C132.565 0.316054 132.355 0.210702 132.109 0.10535C131.862 0.0351157 131.616 0 131.37 0C130.703 0 130.035 0.140469 129.402 0.351173C126.31 1.51004 123.428 3.09032 120.792 5.05689C118.121 7.02346 115.766 9.30609 113.728 11.9048C113.341 12.4666 112.99 13.0285 112.638 13.5904C109.757 18.1557 107.402 23.0018 104.907 27.7427C104.52 28.4801 104.204 29.2527 103.887 30.0604C103.782 30.3765 103.747 30.6925 103.817 31.0086C103.887 31.3246 104.063 31.6056 104.309 31.8514C104.555 32.0621 104.871 32.2026 105.223 32.2377C105.574 32.2728 105.891 32.2377 106.207 32.0972C107.121 31.6758 107.999 31.1842 108.843 30.6574C111.268 29.1122 113.587 27.4617 116.047 25.9868C119.492 23.8446 122.655 21.3864 125.572 18.5419C127.364 16.751 129.051 14.8897 130.668 12.9583C132.811 10.4298 133.76 7.40975 134.006 4.00337C134.006 3.6522 134.006 3.12544 133.936 2.6338M75.3851 19.1038C75.4554 19.1741 75.4905 19.2443 75.4905 19.3145C75.4905 19.3848 75.4905 19.4901 75.4905 19.5603C75.4905 19.6306 75.4202 19.7008 75.3499 19.771C75.2796 19.8413 75.2094 19.8764 75.1391 19.9115C74.9633 19.9466 74.8228 19.9115 74.6822 19.8413C73.3467 18.5771 72.0112 17.348 70.746 16.0135C68.5319 13.766 66.2826 11.5185 64.3145 7.47999C69.3754 11.1673 72.8547 14.679 75.3851 19.0687M70.7811 21.1406C70.6054 21.1757 70.4648 21.1757 70.2891 21.1406C66.4935 18.858 63.6819 15.6272 61.1164 12.0804C60.9406 11.7994 60.8001 11.4834 60.7298 11.1673C60.6595 10.8512 60.6946 10.5703 60.8352 10.2894C61.1164 10.1138 61.3975 10.1138 61.6787 10.2894C63.5765 12.1506 65.4392 14.0469 67.2667 15.9784C68.5319 17.3128 69.7268 18.6824 70.9217 20.0871C71.0974 20.2978 71.0974 20.6841 71.1677 21.0002C71.0623 21.1055 70.9217 21.1757 70.7811 21.246M56.653 1.05352C56.4421 1.05352 56.2313 1.05352 56.0204 1.08864C55.8095 1.12375 55.5987 1.19399 55.4229 1.29934C55.2472 1.40469 55.0364 1.51004 54.8958 1.65051C54.72 1.79098 54.5795 1.93145 54.474 2.10704C54.3335 2.28263 54.2632 2.45821 54.1929 2.66892C54.1226 2.87962 54.0523 3.09032 54.0523 3.30103C54.0523 3.51173 54.0523 3.72243 54.0523 3.93314C54.0523 4.14384 54.1577 4.35455 54.228 4.53013C54.7903 6.11041 55.4581 7.65557 55.9852 9.27097C56.7584 11.7292 57.9534 13.9416 59.6051 15.9433C62.3816 19.3496 65.3337 22.5804 69.2348 24.7928C71.5895 26.1273 73.8739 27.532 76.2286 28.8664C77.564 29.639 78.9698 30.1658 80.4811 30.4467C81.5354 30.5872 82.5897 29.6741 82.3789 28.6557C81.8517 25.9868 81.0785 23.3881 80.0242 20.8948C76.7909 13.5553 71.3083 8.14722 64.666 3.82779C63.0493 2.91474 61.3624 2.14215 59.6051 1.51004C58.9725 1.29934 58.3048 1.12375 57.6019 1.05352C56.9693 1.05352 56.7936 1.05352 56.6179 1.05352M77.2829 64.7212L77.1423 64.8266C77.0017 65.4587 76.7557 66.0908 76.4746 66.6527C74.7525 69.1109 73.0304 71.6042 71.1326 73.9922C69.1293 76.4855 66.9855 78.8384 64.0334 80.3133C63.8225 80.4186 63.4711 80.2079 63.1899 80.0675C63.1196 80.0323 63.0845 79.7514 63.1196 79.6109C63.2953 79.1193 63.5062 78.6979 63.8225 78.2765C65.0526 76.6962 66.3529 75.151 67.7587 73.6761C70.1485 71.3233 72.5384 68.9704 74.7525 66.442C75.3851 65.5991 76.1934 65.0724 77.2126 64.8617L77.2829 64.6861V64.7212ZM60.3783 85.7565C64.42 83.6494 68.3913 81.5073 71.5895 78.136C75.1742 74.3082 78.3021 70.1644 81.0434 65.7045C82.2383 63.6677 83.2223 61.5255 84.0658 59.3131C84.3821 58.365 84.593 57.3817 84.6633 56.3633C84.6633 55.9419 84.5227 55.5556 84.2415 55.2044C83.9955 54.8532 83.6441 54.6425 83.2223 54.5021C82.8357 54.3616 82.414 54.2914 81.9923 54.3265C81.5705 54.3265 81.1488 54.467 80.7974 54.6777C78.8995 55.8014 77.072 56.9603 75.2094 58.1191C70.3243 61.2446 66.4232 65.3884 62.7682 69.8483C61.9247 70.9018 61.2218 72.0607 60.6595 73.2898C59.4294 75.6778 58.1994 78.1009 57.1099 80.5591C56.6881 81.6477 56.3718 82.7715 56.1961 83.9304C55.9852 85.0541 57.2505 86.2832 58.8671 86.1428C59.3943 86.0725 59.8863 85.9321 60.3432 85.7214M123.744 72.7631C123.428 72.6928 123.111 72.5524 122.865 72.3417C118.964 68.6543 115.309 64.7212 111.971 60.5422C111.83 60.3667 111.971 59.9453 111.935 59.6292C112.252 59.6292 112.603 59.5238 112.814 59.6292C114.079 60.472 115.274 61.3499 116.434 62.3332C119.632 65.1075 122.198 68.3734 124.201 72.131C124.271 72.2363 124.166 72.4119 124.131 72.5875C123.99 72.6577 123.85 72.7982 123.709 72.7631M111.865 65.1426C114.325 67.6711 116.434 70.5156 119.07 72.8684C119.562 73.2898 119.667 73.9922 119.351 74.1678C118.859 74.3433 118.402 74.2731 117.98 73.9571C117.84 73.8868 117.699 73.8166 117.559 73.6761C114.431 71.0774 111.689 68.1627 109.3 64.8617C108.421 63.5975 107.718 62.263 107.824 60.6827H107.753C109.124 62.1928 110.495 63.6326 111.9 65.1075M103.536 60.7529C104.309 63.176 105.469 65.4235 106.98 67.4604C109.616 70.9721 112.428 74.3433 116.258 76.626C119.14 78.3467 122.127 79.927 125.08 81.5775C125.536 81.8233 125.993 81.9989 126.485 82.1043C127.997 82.4203 129.543 81.8585 129.789 79.927C129.965 78.3818 129.719 76.9069 129.121 75.4671C128.032 72.7279 126.626 70.1293 124.939 67.7062C123.252 65.2831 121.284 63.0707 119.07 61.1041C115.028 57.4519 110.213 54.9937 105.328 52.7111C105.188 52.676 105.047 52.6408 104.907 52.6057C104.766 52.6057 104.625 52.6057 104.485 52.6057C104.344 52.6057 104.204 52.6408 104.063 52.7111C103.923 52.7462 103.782 52.8164 103.676 52.8867C103.536 52.9569 103.43 53.0623 103.325 53.1676C103.22 53.273 103.114 53.3783 103.044 53.5188C102.974 53.6592 102.903 53.7646 102.868 53.9051C102.833 54.0455 102.798 54.186 102.763 54.3265C102.763 54.6777 102.728 54.9937 102.692 55.2044C102.692 57.1007 102.974 58.9971 103.536 60.7881M57.1099 60.6827C57.0044 60.8934 56.6881 60.9988 56.4421 61.1041C56.4421 61.1041 56.1961 60.8232 56.2313 60.7529C56.3718 60.5422 56.5124 60.3315 56.6881 60.156C57.0396 60.156 57.2856 60.4018 57.1099 60.6827ZM58.0939 56.574C55.3878 56.3984 53.3494 58.084 52.5762 60.7529C52.4708 61.2446 52.5059 61.7362 52.6817 62.2279C52.7519 62.5439 52.8925 62.86 53.0682 63.1409C53.244 63.4219 53.4548 63.6677 53.736 63.9135C53.982 64.1242 54.2632 64.2998 54.5795 64.4403C54.8958 64.5807 55.2121 64.651 55.5635 64.6861C55.915 64.7212 56.2664 64.7212 56.6179 64.6861C56.9693 64.651 57.3207 64.5807 57.6722 64.4403C58.0236 64.2998 58.3399 64.1593 58.6562 63.9837C58.9725 63.8082 59.2537 63.5974 59.4997 63.3516C59.7457 63.1058 59.9917 62.8249 60.2026 62.5439C60.4135 62.263 60.5541 61.9469 60.6946 61.5958C60.8352 61.2797 60.9055 60.9285 60.9758 60.5774C61.0461 60.2262 61.0461 59.875 61.0461 59.5238C61.0461 59.1375 60.9406 58.7864 60.8001 58.4352C60.6595 58.084 60.4486 57.768 60.1675 57.5222C59.8863 57.2412 59.6051 57.0305 59.2537 56.89C58.9023 56.7496 58.5508 56.6442 58.1642 56.6442M131.968 59.5941C131.827 59.6994 131.687 59.7346 131.511 59.6292C131.37 59.559 131.3 59.4185 131.3 59.2429C131.3 58.962 131.546 58.7161 131.687 58.4703L132.425 58.8566C132.284 59.1024 132.179 59.4536 131.968 59.5941ZM136.431 58.2596C136.431 57.6626 136.326 57.1007 136.01 56.6091C135.693 56.0823 135.272 55.6961 134.744 55.4502C131.898 53.9402 130.105 54.3616 128.418 57.0305C128.243 57.3114 128.102 57.5924 127.961 57.9084C127.856 58.1543 127.821 58.365 127.751 58.6108C127.715 58.8566 127.68 59.1024 127.715 59.3483C127.715 59.5941 127.751 59.8399 127.821 60.0857C127.891 60.3315 127.961 60.5774 128.067 60.7881C128.172 60.9988 128.313 61.2095 128.453 61.4202C128.594 61.6309 128.77 61.8065 128.945 61.9821C129.121 62.1576 129.332 62.2981 129.543 62.4035C129.754 62.5439 130 62.6142 130.211 62.7195C130.597 62.8249 130.984 62.8951 131.37 62.9653C131.687 62.9653 132.003 62.9653 132.319 62.9653C132.636 62.9302 132.952 62.86 133.268 62.7546C133.585 62.6493 133.866 62.5088 134.147 62.3332C134.428 62.1576 134.674 61.982 134.92 61.7713C135.166 61.5606 135.377 61.3148 135.553 61.0339C135.728 60.753 135.904 60.472 136.01 60.1911C136.115 59.9101 136.22 59.5941 136.291 59.278C136.361 58.962 136.396 58.6459 136.361 58.3299M56.0555 25.9868C55.8447 25.741 55.7744 25.4952 55.8447 25.1791C55.8447 25.0738 55.9501 24.9684 56.0204 24.8631C56.0907 24.7577 56.1961 24.7226 56.3016 24.6524C56.407 24.6172 56.5124 24.5821 56.653 24.6172C56.7584 24.6172 56.899 24.6524 56.9693 24.7226C57.145 24.8631 57.145 25.2845 57.1802 25.5654C56.9342 26.057 56.407 26.3029 56.0204 25.9868M54.5092 22.159C54.1226 22.2644 53.8063 22.4048 53.49 22.6507C53.1737 22.8614 52.9277 23.1423 52.7168 23.4584C52.5059 23.7744 52.3654 24.1256 52.2951 24.5119C52.2248 24.8982 52.2248 25.2493 52.2951 25.6356C52.4356 26.6892 52.9277 27.532 53.7711 28.1992C55.6338 29.7092 59.7457 29.4985 60.9758 26.3029C61.9598 23.8095 60.7298 21.8781 58.0588 21.8078H57.1802C56.5827 21.8781 55.5635 21.9834 54.5795 22.159M110.354 5.96994H109.967C109.967 5.93483 110.213 5.51342 110.213 5.51342L110.354 5.96994ZM106.98 7.44487C107.121 7.76092 107.332 8.00675 107.578 8.21745C110.038 10.0436 112.041 9.90308 113.587 7.55022C114.044 6.84788 114.36 6.07529 114.536 5.2676C114.642 4.84619 114.606 4.42478 114.501 4.03849C114.396 3.61708 114.185 3.26591 113.868 2.94985C113.412 2.45821 112.884 2.07192 112.287 1.79098C111.689 1.51004 111.057 1.40469 110.389 1.40469C107.578 1.54516 105.68 4.98666 106.945 7.44487M135.693 23.0721C135.518 23.1072 135.236 22.7911 135.026 22.6507C135.201 22.44 135.342 22.0888 135.553 22.0537C135.764 22.0186 135.974 22.3346 136.185 22.5102C135.974 22.6858 135.869 23.0721 135.658 23.1072L135.693 23.0721ZM136.888 25.9868C137.169 25.9166 137.45 25.8112 137.696 25.6708C137.943 25.5303 138.189 25.3547 138.399 25.1791C138.61 24.9684 138.821 24.7577 138.962 24.5119C139.137 24.2661 139.278 24.0202 139.348 23.7393C139.454 23.4584 139.524 23.1774 139.559 22.8965C139.559 22.6155 139.559 22.2995 139.559 22.0186C139.524 21.7376 139.454 21.4567 139.348 21.1757C139.243 20.8948 139.102 20.649 138.927 20.4032C138.54 19.8413 138.083 19.3848 137.486 18.9985C136.923 18.6473 136.291 18.4015 135.623 18.261C134.955 18.1556 134.323 18.261 133.725 18.5771C133.022 19.0336 132.46 19.6306 132.038 20.3329C130.597 22.8614 132.53 26.0922 135.588 26.1273C136.01 26.0922 136.431 26.0219 136.853 25.9517M77.8452 84.2464L77.6695 84.6327L77.4586 84.2464H77.8452ZM80.5865 86.9505C81.0082 86.3886 81.3245 85.8267 81.6057 85.1946C81.8517 84.7381 81.922 84.2464 81.8868 83.7197C81.8165 83.1929 81.6408 82.7364 81.3245 82.3501C81.0082 81.9638 80.6568 81.5775 80.3053 81.2614C80.0593 81.0156 79.8133 80.8049 79.497 80.6645C79.2159 80.524 78.8995 80.4186 78.5481 80.3484C78.2318 80.2782 77.8804 80.2782 77.5641 80.3484C77.2478 80.3835 76.9314 80.4889 76.6151 80.6645C75.4905 81.1561 74.647 81.9287 74.1199 83.0173C73.9793 83.3334 73.8739 83.6494 73.8387 83.9655C73.8036 84.2815 73.8036 84.6327 73.8387 84.9488C73.909 85.2648 74.0144 85.5809 74.155 85.8969C74.3307 86.1779 74.5065 86.4588 74.7525 86.6695C75.7365 87.5475 76.8963 87.9689 78.1967 87.9689C78.6535 87.9689 79.0753 87.8986 79.497 87.723C79.9187 87.5475 80.2702 87.2665 80.5513 86.9153M109.792 85.8618C109.44 85.8618 109.335 85.6511 109.546 85.4053C109.651 85.3351 109.792 85.2999 109.897 85.3702C109.967 85.4053 110.003 85.5809 110.073 85.6862C109.967 85.7565 109.862 85.8969 109.757 85.8969M113.412 87.0207C113.517 86.81 113.622 86.5993 113.693 86.3886C113.763 86.1779 113.798 85.9321 113.833 85.7214C113.868 85.5107 113.833 85.2648 113.833 85.0541C113.833 84.8434 113.763 84.5976 113.693 84.3869C113.622 84.1762 113.552 83.9655 113.447 83.7548C113.341 83.5441 113.201 83.3685 113.06 83.1929C112.92 83.0173 112.744 82.8417 112.568 82.7013C112.392 82.5608 112.217 82.4203 112.006 82.315C111.408 82.034 110.811 81.7882 110.178 81.5775C109.967 81.5073 109.721 81.4722 109.511 81.437C109.3 81.4019 109.054 81.437 108.808 81.437C108.562 81.437 108.351 81.5073 108.14 81.5775C107.929 81.6477 107.718 81.7531 107.507 81.8585C107.296 81.9638 107.121 82.1043 106.945 82.2447C106.769 82.3852 106.629 82.5608 106.488 82.7364C106.347 82.912 106.242 83.1227 106.137 83.3334C106.031 83.5441 105.961 83.7548 105.926 84.0006C105.855 84.2113 105.855 84.4571 105.82 84.6678C105.82 84.8785 105.82 85.1244 105.855 85.3351C105.855 85.5458 105.961 85.7916 106.031 86.0023C106.101 86.213 106.207 86.4237 106.312 86.5993C106.418 86.81 106.558 86.9856 106.734 87.126C106.875 87.3016 107.05 87.4421 107.226 87.5826C107.402 87.723 107.613 87.8284 107.824 87.9337C108.034 88.0391 108.245 88.1093 108.456 88.1444C109.089 88.32 109.757 88.3903 110.178 88.4605C110.811 88.5307 111.408 88.4605 112.006 88.1796C112.603 87.9337 113.06 87.5123 113.447 86.9856M78.513 0.948166C77.8452 1.0184 77.1775 1.15887 76.5097 1.29934C76.2988 1.36957 76.1231 1.43981 75.9474 1.54516C75.7717 1.65051 75.596 1.79098 75.4554 1.93145C75.3148 2.07192 75.1742 2.24751 75.0688 2.42309C74.9633 2.59868 74.8579 2.77427 74.7876 2.98497C74.7173 3.19568 74.647 3.37126 74.647 3.58196C74.647 3.79267 74.647 4.00337 74.647 4.21408C74.647 4.42478 74.7173 4.63548 74.7525 4.84619C74.8228 5.05689 74.8931 5.23248 74.9985 5.40807C75.4202 6.11041 75.9825 6.74252 76.6151 7.3044C77.9858 8.42815 80.235 8.04186 81.6408 6.60205C82.8709 5.33783 82.8709 3.54685 81.7111 2.0368C81.0082 1.15887 80.0593 0.948166 78.5481 0.948166" fill="#652A0E"/>
<path d="M52.1195 226.823V219.273H55.388C56.2314 219.273 56.8992 219.448 57.3561 219.764C57.8129 220.115 58.059 220.572 58.059 221.204C58.059 221.836 57.9535 221.977 57.7778 222.222C57.6021 222.503 57.3209 222.714 57.0046 222.854C56.6883 222.995 56.3017 223.065 55.9151 223.065L56.0909 222.819C56.5829 222.819 57.0046 222.89 57.3209 223.03C57.6724 223.171 57.9535 223.381 58.1292 223.697C58.3401 223.978 58.4104 224.365 58.4104 224.786C58.4104 225.418 58.1644 225.91 57.7075 226.261C57.2506 226.612 56.5126 226.788 55.5637 226.788H52.0844L52.1195 226.823ZM52.9278 226.191H55.5988C56.2666 226.191 56.7586 226.085 57.11 225.839C57.4615 225.629 57.6372 225.242 57.6372 224.751C57.6372 224.259 57.4615 223.908 57.11 223.662C56.7586 223.451 56.2666 223.311 55.5988 223.311H52.8575V222.644H55.3528C55.9503 222.644 56.4423 222.538 56.7586 222.293C57.11 222.047 57.2506 221.731 57.2506 221.274C57.2506 220.818 57.0749 220.467 56.7586 220.256C56.4072 220.045 55.9503 219.905 55.3528 219.905H52.963V226.156L52.9278 226.191Z" fill="#B87C59"/>
<path d="M60.1324 229C59.8513 229 59.6053 228.965 59.3593 228.86C59.1132 228.789 58.9024 228.649 58.7267 228.473L59.0781 227.911C59.2187 228.052 59.3944 228.157 59.535 228.227C59.7107 228.298 59.8864 228.333 60.0973 228.333C60.3082 228.333 60.5542 228.263 60.765 228.122C60.9408 227.982 61.1165 227.736 61.2922 227.385L61.6437 226.542L61.7139 226.436L64.0335 221.169H64.7715L61.9248 227.525C61.7491 227.876 61.6085 228.192 61.3976 228.403C61.1868 228.614 61.0111 228.754 60.765 228.86C60.5542 228.965 60.3082 229 60.027 229H60.1324ZM61.6437 226.998L59.043 221.169H59.8513L62.1708 226.366L61.6788 226.998H61.6437Z" fill="#B87C59"/>
<path d="M71.0274 226.893C70.4651 226.893 69.9379 226.788 69.4107 226.612C68.8835 226.436 68.497 226.191 68.2158 225.91L68.5321 225.278C68.8133 225.523 69.1647 225.769 69.6216 225.945C70.0785 226.12 70.5353 226.226 71.0274 226.226C71.5194 226.226 71.906 226.155 72.1871 226.05C72.4683 225.945 72.7143 225.769 72.8549 225.558C72.9955 225.348 73.0658 225.137 73.0658 224.891C73.0658 224.645 72.9955 224.364 72.8197 224.189C72.644 224.013 72.4331 223.873 72.152 223.767C71.8708 223.662 71.5897 223.557 71.2382 223.487C70.9219 223.416 70.5705 223.311 70.2542 223.241C69.9379 223.17 69.6216 223.03 69.3404 222.89C69.0593 222.749 68.8484 222.538 68.6727 222.293C68.497 222.047 68.4267 221.731 68.4267 221.309C68.4267 220.888 68.5321 220.607 68.7078 220.291C68.9187 219.975 69.1998 219.729 69.6216 219.518C70.0433 219.343 70.5705 219.237 71.2031 219.237C71.8357 219.237 72.0466 219.308 72.4683 219.413C72.89 219.518 73.2415 219.694 73.5578 219.905L73.2766 220.537C72.9603 220.326 72.6089 220.15 72.2574 220.045C71.906 219.94 71.5545 219.905 71.2031 219.905C70.8516 219.905 70.3596 219.975 70.0785 220.08C69.7973 220.185 69.5513 220.361 69.4107 220.572C69.2701 220.782 69.1998 220.993 69.1998 221.274C69.1998 221.555 69.2701 221.801 69.4459 221.976C69.6216 222.152 69.8324 222.293 70.1136 222.398C70.3948 222.503 70.7111 222.573 71.0274 222.679C71.3437 222.749 71.6951 222.854 72.0114 222.925C72.3277 223.03 72.644 223.135 72.9252 223.276C73.2063 223.416 73.4172 223.627 73.5929 223.873C73.7686 224.119 73.8389 224.435 73.8389 224.821C73.8389 225.207 73.7335 225.523 73.5226 225.839C73.3118 226.155 73.0306 226.401 72.6089 226.577C72.1871 226.752 71.66 226.858 71.0274 226.858V226.893Z" fill="#B87C59"/>
<path d="M77.0019 226.893C76.5801 226.893 76.1935 226.823 75.9124 226.682C75.6312 226.542 75.3501 226.331 75.2095 226.085C75.0338 225.839 74.9635 225.558 74.9635 225.242C74.9635 224.926 75.0338 224.681 75.1743 224.435C75.3149 224.189 75.5609 224.013 75.8772 223.838C76.1935 223.697 76.6153 223.627 77.1776 223.627H79.1457V224.189H77.2127C76.6504 224.189 76.299 224.294 76.0881 224.47C75.8772 224.645 75.7718 224.891 75.7718 225.207C75.7718 225.523 75.9124 225.804 76.1584 225.98C76.4044 226.191 76.7559 226.261 77.2127 226.261C77.6696 226.261 78.0211 226.155 78.3374 225.98C78.6537 225.769 78.8645 225.488 79.0051 225.137L79.1808 225.664C79.0403 226.05 78.7942 226.331 78.4428 226.542C78.0914 226.752 77.6345 226.893 77.1073 226.893H77.0019ZM78.97 226.823V225.383V223.276C78.97 222.784 78.8294 222.433 78.5482 222.152C78.2671 221.906 77.8805 221.766 77.3533 221.766C76.8261 221.766 76.6504 221.836 76.299 221.941C75.9827 222.047 75.7015 222.222 75.4555 222.433L75.1041 221.871C75.3852 221.625 75.7367 221.45 76.1233 221.309C76.5098 221.169 76.9667 221.099 77.3885 221.099C78.1265 221.099 78.6888 221.274 79.0754 221.66C79.462 222.012 79.6729 222.573 79.6729 223.311V226.823H78.9348H78.97Z" fill="#B87C59"/>
<path d="M81.7815 226.823V221.169H82.5196V222.714L82.4141 222.433C82.5899 222.012 82.871 221.696 83.2927 221.485C83.7145 221.274 84.1714 221.134 84.6985 221.134C85.2257 221.134 85.5771 221.239 85.9286 221.415C86.28 221.59 86.5612 221.871 86.7369 222.222C86.9478 222.574 87.0181 223.03 87.0181 223.592V226.893H86.2449V223.662C86.2449 223.065 86.1043 222.609 85.788 222.293C85.4717 221.977 85.0851 221.836 84.5228 221.836C83.9605 221.836 83.7848 221.906 83.4685 222.082C83.1522 222.257 82.9413 222.468 82.7656 222.784C82.5899 223.1 82.5196 223.451 82.5196 223.873V226.858H81.7464L81.7815 226.823Z" fill="#B87C59"/>
<path d="M91.3409 226.893C90.8137 226.893 90.3217 226.788 89.8999 226.542C89.4782 226.296 89.1268 225.945 88.8807 225.523C88.6347 225.102 88.5293 224.575 88.5293 224.013C88.5293 223.451 88.6347 222.925 88.8807 222.503C89.1268 222.082 89.4782 221.731 89.8999 221.485C90.3217 221.239 90.8137 221.134 91.3409 221.134C91.868 221.134 92.2898 221.239 92.6764 221.485C93.063 221.696 93.3793 222.047 93.6253 222.468C93.8713 222.89 93.9767 223.416 93.9767 224.048C93.9767 224.681 93.8713 225.172 93.6253 225.629C93.3793 226.085 93.0981 226.401 92.6764 226.612C92.2898 226.823 91.8329 226.963 91.3409 226.963V226.893ZM91.4112 226.226C91.7978 226.226 92.1843 226.12 92.5006 225.945C92.8169 225.769 93.063 225.488 93.2387 225.172C93.4144 224.821 93.5198 224.435 93.5198 224.013C93.5198 223.592 93.4144 223.171 93.2387 222.854C93.063 222.538 92.8169 222.257 92.5006 222.082C92.1843 221.906 91.8329 221.801 91.4112 221.801C90.9894 221.801 90.6731 221.906 90.3568 222.082C90.0405 222.257 89.7945 222.538 89.6188 222.854C89.4431 223.171 89.3376 223.557 89.3376 224.013C89.3376 224.47 89.4431 224.821 89.6188 225.172C89.7945 225.523 90.0405 225.769 90.3568 225.945C90.6731 226.12 91.0246 226.226 91.4112 226.226ZM93.555 226.823V225.102L93.6253 223.943L93.5198 222.784V218.781H94.293V226.788H93.555V226.823Z" fill="#B87C59"/>
<path d="M98.0183 226.893C97.5966 226.893 97.21 226.823 96.9288 226.682C96.6477 226.542 96.3665 226.331 96.2259 226.085C96.0854 225.839 95.9799 225.558 95.9799 225.242C95.9799 224.926 96.0502 224.681 96.1908 224.435C96.3314 224.189 96.5774 224.013 96.8937 223.838C97.21 223.697 97.6317 223.627 98.194 223.627H100.162V224.189H98.2292C97.6669 224.189 97.3154 224.294 97.1046 224.47C96.8937 224.645 96.7883 224.891 96.7883 225.207C96.7883 225.523 96.9288 225.804 97.1748 225.98C97.4209 226.191 97.7723 226.261 98.2292 226.261C98.6861 226.261 99.0375 226.155 99.3538 225.98C99.6701 225.769 99.881 225.488 100.022 225.137L100.197 225.664C100.057 226.05 99.8107 226.331 99.4592 226.542C99.1078 226.752 98.6509 226.893 98.1238 226.893H98.0183ZM99.9513 226.823V225.383V223.276C99.9513 222.784 99.8107 222.433 99.5295 222.152C99.2484 221.906 98.8618 221.766 98.3346 221.766C97.8074 221.766 97.6317 221.836 97.2803 221.941C96.964 222.047 96.6828 222.222 96.4368 222.433L96.0854 221.871C96.3665 221.625 96.718 221.45 97.1046 221.309C97.4911 221.169 97.948 221.099 98.3698 221.099C99.1078 221.099 99.6701 221.274 100.057 221.66C100.443 222.012 100.654 222.573 100.654 223.311V226.823H99.9161H99.9513Z" fill="#B87C59"/>
<path d="M102.798 226.823V218.816H103.571V226.823H102.798Z" fill="#B87C59"/>
<path d="M106.84 226.823L104.696 221.169H105.434L107.367 226.436H107.015L109.019 221.169H109.686L111.654 226.436H111.303L113.271 221.169H113.974L111.83 226.823H111.092L109.194 221.871H109.405L107.507 226.823H106.769H106.84Z" fill="#B87C59"/>
<path d="M117.313 226.893C116.75 226.893 116.258 226.753 115.837 226.507C115.415 226.261 115.063 225.91 114.817 225.488C114.571 225.067 114.431 224.54 114.431 224.013C114.431 223.487 114.571 222.96 114.817 222.503C115.063 222.047 115.415 221.731 115.837 221.485C116.258 221.239 116.75 221.134 117.313 221.134C117.875 221.134 118.367 221.274 118.824 221.52C119.246 221.766 119.597 222.117 119.843 222.538C120.089 222.96 120.23 223.451 120.23 224.048C120.23 224.645 120.089 225.102 119.843 225.559C119.597 226.015 119.246 226.331 118.824 226.577C118.402 226.823 117.875 226.963 117.348 226.963L117.313 226.893ZM117.313 226.226C117.734 226.226 118.086 226.12 118.402 225.945C118.718 225.769 118.964 225.488 119.14 225.172C119.316 224.821 119.421 224.435 119.421 224.013C119.421 223.592 119.316 223.171 119.14 222.854C118.964 222.538 118.718 222.257 118.402 222.082C118.086 221.906 117.734 221.801 117.313 221.801C116.891 221.801 116.539 221.906 116.223 222.082C115.907 222.257 115.661 222.538 115.45 222.854C115.274 223.171 115.169 223.557 115.169 224.013C115.169 224.47 115.274 224.821 115.45 225.172C115.626 225.523 115.872 225.769 116.188 225.945C116.504 226.12 116.856 226.226 117.277 226.226H117.313Z" fill="#B87C59"/>
<path d="M124.096 226.893C123.533 226.893 123.041 226.753 122.62 226.507C122.198 226.261 121.846 225.91 121.6 225.488C121.354 225.067 121.214 224.54 121.214 224.013C121.214 223.487 121.354 222.96 121.6 222.503C121.846 222.047 122.198 221.731 122.62 221.485C123.041 221.239 123.533 221.134 124.096 221.134C124.658 221.134 125.15 221.274 125.607 221.52C126.029 221.766 126.38 222.117 126.626 222.538C126.872 222.96 127.013 223.451 127.013 224.048C127.013 224.645 126.872 225.102 126.626 225.559C126.38 226.015 126.029 226.331 125.607 226.577C125.185 226.823 124.658 226.963 124.131 226.963L124.096 226.893ZM124.096 226.226C124.517 226.226 124.869 226.12 125.185 225.945C125.501 225.769 125.747 225.488 125.923 225.172C126.099 224.821 126.204 224.435 126.204 224.013C126.204 223.592 126.099 223.171 125.923 222.854C125.747 222.538 125.501 222.257 125.185 222.082C124.869 221.906 124.517 221.801 124.096 221.801C123.674 221.801 123.322 221.906 123.006 222.082C122.69 222.257 122.444 222.538 122.233 222.854C122.057 223.171 121.952 223.557 121.952 224.013C121.952 224.47 122.057 224.821 122.233 225.172C122.409 225.523 122.655 225.769 122.971 225.945C123.287 226.12 123.639 226.226 124.061 226.226H124.096Z" fill="#B87C59"/>
<path d="M130.808 226.893C130.281 226.893 129.789 226.788 129.367 226.542C128.946 226.296 128.594 225.945 128.348 225.523C128.102 225.102 127.997 224.575 127.997 224.013C127.997 223.451 128.102 222.925 128.348 222.503C128.594 222.082 128.946 221.731 129.367 221.485C129.789 221.239 130.281 221.134 130.808 221.134C131.335 221.134 131.757 221.239 132.144 221.485C132.53 221.696 132.847 222.047 133.093 222.468C133.339 222.89 133.444 223.416 133.444 224.048C133.444 224.681 133.339 225.172 133.093 225.629C132.847 226.085 132.566 226.401 132.144 226.612C131.757 226.823 131.3 226.963 130.808 226.963V226.893ZM130.843 226.226C131.23 226.226 131.617 226.12 131.933 225.945C132.249 225.769 132.495 225.488 132.671 225.172C132.847 224.821 132.952 224.435 132.952 224.013C132.952 223.592 132.847 223.171 132.671 222.854C132.495 222.538 132.249 222.257 131.933 222.082C131.617 221.906 131.265 221.801 130.843 221.801C130.422 221.801 130.105 221.906 129.789 222.082C129.473 222.257 129.227 222.538 129.016 222.854C128.84 223.171 128.735 223.557 128.735 224.013C128.735 224.47 128.84 224.821 129.016 225.172C129.192 225.523 129.438 225.769 129.789 225.945C130.105 226.12 130.457 226.226 130.843 226.226ZM132.987 226.823V225.102L133.058 223.943L132.952 222.784V218.781H133.725V226.788H132.987V226.823Z" fill="#B87C59"/>
<path d="M137.38 226.893C136.923 226.893 136.466 226.823 136.045 226.682C135.623 226.542 135.307 226.366 135.061 226.191L135.412 225.594C135.658 225.769 135.939 225.91 136.291 226.05C136.642 226.191 137.029 226.226 137.415 226.226C137.802 226.226 138.329 226.156 138.575 225.98C138.821 225.804 138.927 225.594 138.927 225.313C138.927 225.032 138.856 224.926 138.716 224.821C138.575 224.716 138.399 224.61 138.189 224.54C137.978 224.47 137.732 224.435 137.45 224.4C137.169 224.365 136.923 224.294 136.642 224.259C136.361 224.224 136.15 224.119 135.939 224.013C135.728 223.908 135.553 223.732 135.412 223.557C135.272 223.381 135.201 223.1 135.201 222.784C135.201 222.468 135.272 222.187 135.447 221.941C135.623 221.696 135.869 221.52 136.22 221.38C136.572 221.239 136.958 221.169 137.45 221.169C137.943 221.169 138.189 221.204 138.54 221.309C138.891 221.415 139.208 221.52 139.454 221.696L139.102 222.328C138.856 222.152 138.575 222.047 138.294 221.941C138.013 221.871 137.732 221.836 137.415 221.836C136.888 221.836 136.537 221.941 136.291 222.117C136.045 222.293 135.939 222.503 135.939 222.784C135.939 223.065 136.01 223.171 136.15 223.276C136.291 223.381 136.466 223.487 136.677 223.557C136.888 223.627 137.134 223.697 137.415 223.732C137.697 223.768 137.943 223.838 138.189 223.873C138.435 223.943 138.681 224.013 138.927 224.119C139.137 224.224 139.313 224.365 139.454 224.575C139.594 224.751 139.665 225.032 139.665 225.313C139.665 225.594 139.559 225.945 139.383 226.156C139.208 226.401 138.927 226.577 138.575 226.717C138.224 226.858 137.802 226.928 137.31 226.928L137.38 226.893Z" fill="#B87C59"/>
<path d="M10.3676 212.144V203.119H14.2686C15.2878 203.119 16.061 203.329 16.6233 203.716C17.1856 204.137 17.4668 204.699 17.4668 205.436C17.4668 206.174 17.3614 206.349 17.1154 206.665C16.9045 207.017 16.5882 207.262 16.2016 207.438C15.815 207.614 15.3933 207.684 14.9012 207.684L15.1121 207.368C15.6744 207.368 16.2016 207.473 16.5882 207.649C17.0099 207.824 17.3262 208.105 17.5722 208.421C17.8183 208.772 17.9237 209.194 17.9237 209.721C17.9237 210.493 17.6425 211.09 17.0802 211.512C16.5179 211.933 15.6744 212.144 14.5147 212.144H10.3676ZM11.3165 211.336H14.5147C15.323 211.336 15.9204 211.196 16.3422 210.915C16.7639 210.634 16.9748 210.212 16.9748 209.615C16.9748 209.018 16.7639 208.597 16.3422 208.316C15.9204 208.035 15.323 207.895 14.5147 207.895H11.2111V207.122H14.1984C14.9364 207.122 15.4987 206.981 15.8853 206.701C16.2719 206.42 16.4828 206.033 16.4828 205.471C16.4828 204.91 16.2719 204.523 15.8853 204.242C15.4987 203.961 14.9364 203.821 14.1984 203.821H11.3165V211.301V211.336Z" fill="#B87C59"/>
<path d="M21.4733 212.144V203.119H27.6939V203.961H22.4574V211.336H27.9048V212.179H21.5085L21.4733 212.144ZM22.3168 207.965V207.157H27.0965V207.965H22.3168Z" fill="#B87C59"/>
<path d="M30.0487 212.144L34.1958 203.119H35.1447L39.2917 212.144H38.2725L34.4769 203.645H34.8635L31.0679 212.144H30.0838H30.0487ZM31.7005 209.721L31.9816 208.948H37.2533L37.5345 209.721H31.7005Z" fill="#B87C59"/>
<path d="M46.0746 212.214C45.4069 212.214 44.7743 212.109 44.1768 211.863C43.6145 211.652 43.0873 211.301 42.6656 210.915C42.2439 210.493 41.9276 210.002 41.6816 209.44C41.4355 208.878 41.3301 208.281 41.3301 207.614C41.3301 206.946 41.4355 206.349 41.6816 205.787C41.9276 205.226 42.2439 204.734 42.6656 204.313C43.0873 203.891 43.5794 203.575 44.1768 203.364C44.7391 203.154 45.3717 203.013 46.0746 203.013C46.7775 203.013 47.3398 203.119 47.9373 203.329C48.4996 203.54 48.9916 203.891 49.4134 204.313L48.8159 204.91C48.4293 204.523 48.0427 204.242 47.5858 204.102C47.129 203.926 46.6721 203.856 46.1449 203.856C45.6177 203.856 45.0906 203.961 44.6337 204.137C44.1768 204.313 43.7551 204.593 43.4036 204.91C43.0522 205.261 42.8062 205.647 42.5953 206.103C42.3845 206.56 42.3142 207.052 42.3142 207.578C42.3142 208.105 42.4196 208.632 42.5953 209.053C42.8062 209.51 43.0522 209.896 43.4036 210.247C43.7551 210.599 44.1417 210.844 44.6337 211.02C45.1257 211.196 45.6177 211.301 46.1449 211.301C46.6721 211.301 47.129 211.231 47.5858 211.055C48.0427 210.879 48.4293 210.599 48.8159 210.212L49.4134 210.809C49.0268 211.231 48.5348 211.582 47.9373 211.793C47.375 212.003 46.7424 212.144 46.0746 212.144V212.214Z" fill="#B87C59"/>
<path d="M52.6818 212.144V203.119H53.6307V212.144H52.6818ZM53.5604 207.965V207.122H59.4295V207.965H53.5604ZM59.3241 212.144V203.119H60.273V212.144H59.3241Z" fill="#B87C59"/>
<path d="M64.5957 212.144V203.119H70.8163V203.961H65.5798V212.179H64.6309L64.5957 212.144ZM65.4392 208.281V207.438H70.2189V208.281H65.4392Z" fill="#B87C59"/>
<path d="M74.1551 212.144V203.119H77.529C78.6888 203.119 79.5674 203.4 80.2351 203.926C80.9029 204.453 81.2192 205.226 81.2192 206.209C81.2192 207.192 81.0786 207.403 80.7623 207.859C80.4811 208.316 80.0243 208.667 79.4971 208.913C78.9348 209.159 78.3022 209.264 77.529 209.264H74.6823L75.104 208.843V212.144H74.1551ZM75.104 208.913L74.6823 208.456H77.529C78.4427 208.456 79.1105 208.246 79.6025 207.859C80.0594 207.473 80.3054 206.911 80.3054 206.209C80.3054 205.507 80.0594 204.91 79.6025 204.523C79.1456 204.137 78.4427 203.926 77.529 203.926H74.6823L75.104 203.47V208.913ZM80.3054 212.144L77.9859 208.878H79.005L81.3597 212.144H80.3054Z" fill="#B87C59"/>
<path d="M88.8105 212.214C88.1427 212.214 87.5101 212.109 86.9127 211.863C86.3152 211.652 85.8232 211.301 85.4014 210.879C84.9797 210.458 84.6283 209.966 84.4174 209.405C84.1714 208.843 84.066 208.246 84.066 207.578C84.066 206.911 84.1714 206.314 84.4174 205.752C84.6634 205.19 84.9797 204.699 85.4014 204.277C85.8232 203.856 86.3152 203.54 86.9127 203.294C87.475 203.083 88.1076 202.943 88.8105 202.943C89.5134 202.943 90.1108 203.048 90.7083 203.294C91.2706 203.54 91.7978 203.856 92.2195 204.242C92.6412 204.664 92.9927 205.155 93.2036 205.717C93.4496 206.279 93.555 206.876 93.555 207.543C93.555 208.211 93.4496 208.808 93.2036 209.369C92.9575 209.931 92.6412 210.423 92.2195 210.844C91.7978 211.266 91.3057 211.582 90.7083 211.793C90.1108 212.003 89.5134 212.144 88.8105 212.144V212.214ZM88.8105 211.371C89.3376 211.371 89.8648 211.266 90.3217 211.09C90.7786 210.915 91.2003 210.634 91.5166 210.318C91.8681 209.966 92.1141 209.58 92.3249 209.124C92.5007 208.667 92.6061 208.175 92.6061 207.649C92.6061 207.122 92.5007 206.595 92.3249 206.174C92.1492 205.717 91.8681 205.331 91.5166 204.98C91.1652 204.629 90.7786 204.383 90.3217 204.207C89.8648 204.032 89.3728 203.926 88.8105 203.926C88.2482 203.926 87.7561 204.032 87.2993 204.207C86.8424 204.383 86.4206 204.664 86.0692 204.98C85.7177 205.331 85.4717 205.717 85.2609 206.174C85.0851 206.63 84.9797 207.122 84.9797 207.649C84.9797 208.175 85.0851 208.667 85.2609 209.124C85.4366 209.58 85.7177 209.966 86.0692 210.318C86.4206 210.669 86.8072 210.915 87.2993 211.09C87.7561 211.266 88.2833 211.371 88.8105 211.371Z" fill="#B87C59"/>
<path d="M97.1046 212.144V203.119H97.8778L104.134 210.985H103.712V203.119H104.661V212.144H103.888L97.6669 204.277H98.0887V212.144H97.1398H97.1046Z" fill="#B87C59"/>
<path d="M110.741 212.144V203.926H107.578V203.083H114.888V203.926H111.725V212.144H110.776H110.741Z" fill="#B87C59"/>
<path d="M122.549 212.144V203.119H125.923C127.083 203.119 127.962 203.4 128.629 203.926C129.297 204.488 129.613 205.226 129.613 206.209C129.613 207.192 129.473 207.403 129.157 207.859C128.84 208.316 128.418 208.667 127.891 208.913C127.329 209.159 126.696 209.264 125.923 209.264H123.076L123.498 208.843V212.144H122.549ZM123.498 208.913L123.076 208.456H125.923C126.837 208.456 127.505 208.246 127.997 207.859C128.454 207.473 128.7 206.911 128.7 206.209C128.7 205.507 128.454 204.91 127.997 204.523C127.54 204.137 126.837 203.926 125.923 203.926H123.076L123.498 203.47V208.913ZM128.735 212.144L126.415 208.878H127.434L129.789 212.144H128.735Z" fill="#B87C59"/>
<path d="M133.303 212.144V203.119H139.524V203.961H134.287V211.336H139.735V212.179H133.339L133.303 212.144ZM134.147 207.965V207.157H138.927V207.965H134.147Z" fill="#B87C59"/>
<path d="M145.815 212.214C145.147 212.214 144.515 212.109 143.882 211.898C143.249 211.687 142.793 211.406 142.441 211.055L142.828 210.318C143.144 210.634 143.566 210.879 144.128 211.09C144.655 211.301 145.218 211.406 145.815 211.406C146.412 211.406 146.834 211.336 147.221 211.196C147.607 211.055 147.853 210.844 147.994 210.634C148.17 210.388 148.24 210.142 148.24 209.826C148.24 209.51 148.135 209.194 147.924 208.983C147.713 208.772 147.467 208.597 147.115 208.456C146.764 208.316 146.412 208.211 146.026 208.14C145.639 208.035 145.218 207.93 144.831 207.824C144.444 207.719 144.058 207.578 143.741 207.403C143.425 207.227 143.144 206.981 142.933 206.701C142.722 206.42 142.617 205.998 142.617 205.542C142.617 205.085 142.722 204.699 142.968 204.313C143.214 203.926 143.566 203.645 144.058 203.399C144.55 203.189 145.182 203.048 145.956 203.048C146.729 203.048 146.975 203.119 147.467 203.259C147.959 203.399 148.381 203.61 148.767 203.856L148.451 204.629C148.064 204.383 147.643 204.172 147.221 204.067C146.799 203.961 146.377 203.891 145.956 203.891C145.534 203.891 144.972 203.961 144.62 204.102C144.269 204.242 144.023 204.453 143.847 204.699C143.671 204.945 143.601 205.226 143.601 205.542C143.601 205.858 143.706 206.174 143.917 206.384C144.128 206.595 144.374 206.771 144.726 206.876C145.042 206.981 145.428 207.122 145.815 207.192C146.202 207.298 146.588 207.403 147.01 207.508C147.397 207.614 147.748 207.754 148.099 207.93C148.416 208.105 148.697 208.351 148.908 208.632C149.119 208.913 149.224 209.299 149.224 209.791C149.224 210.282 149.119 210.634 148.873 211.02C148.627 211.406 148.275 211.687 147.783 211.933C147.291 212.144 146.658 212.284 145.885 212.284L145.815 212.214Z" fill="#B87C59"/>
<path d="M156.604 212.214C155.937 212.214 155.304 212.109 154.707 211.863C154.109 211.652 153.617 211.301 153.195 210.879C152.774 210.458 152.422 209.966 152.211 209.405C151.965 208.843 151.86 208.246 151.86 207.578C151.86 206.911 151.965 206.314 152.211 205.752C152.457 205.19 152.774 204.699 153.195 204.277C153.617 203.856 154.109 203.54 154.707 203.294C155.269 203.083 155.902 202.943 156.604 202.943C157.307 202.943 157.905 203.048 158.502 203.294C159.065 203.54 159.592 203.856 160.013 204.242C160.435 204.664 160.787 205.155 160.997 205.717C161.243 206.279 161.349 206.876 161.349 207.543C161.349 208.211 161.243 208.808 160.997 209.369C160.751 209.931 160.435 210.423 160.013 210.844C159.592 211.266 159.1 211.582 158.502 211.793C157.905 212.003 157.307 212.144 156.604 212.144V212.214ZM156.604 211.371C157.132 211.371 157.659 211.266 158.116 211.09C158.573 210.915 158.994 210.634 159.311 210.318C159.662 209.966 159.908 209.58 160.119 209.124C160.295 208.667 160.4 208.175 160.4 207.649C160.4 207.122 160.295 206.595 160.119 206.174C159.943 205.717 159.662 205.331 159.311 204.98C158.959 204.629 158.573 204.383 158.116 204.207C157.659 204.032 157.167 203.926 156.604 203.926C156.042 203.926 155.55 204.032 155.093 204.207C154.636 204.383 154.215 204.664 153.863 204.98C153.512 205.296 153.266 205.717 153.055 206.174C152.844 206.63 152.774 207.122 152.774 207.649C152.774 208.175 152.879 208.667 153.055 209.124C153.231 209.58 153.512 209.966 153.863 210.318C154.215 210.669 154.601 210.915 155.093 211.09C155.585 211.266 156.077 211.371 156.604 211.371Z" fill="#B87C59"/>
<path d="M164.863 212.144V203.119H168.237C169.397 203.119 170.276 203.4 170.943 203.926C171.611 204.488 171.927 205.226 171.927 206.209C171.927 207.192 171.787 207.403 171.47 207.859C171.154 208.316 170.732 208.667 170.205 208.913C169.643 209.159 169.01 209.264 168.237 209.264H165.39L165.812 208.843V212.144H164.863ZM165.847 208.913L165.426 208.456H168.272C169.186 208.456 169.854 208.246 170.346 207.859C170.803 207.473 171.049 206.911 171.049 206.209C171.049 205.507 170.803 204.91 170.346 204.523C169.889 204.137 169.186 203.926 168.272 203.926H165.426L165.847 203.47V208.913ZM171.049 212.144L168.729 208.878H169.748L172.103 212.144H171.049Z" fill="#B87C59"/>
<path d="M177.375 212.144V203.926H174.212V203.083H181.522V203.926H178.359V212.144H177.41H177.375Z" fill="#B87C59"/>
</svg>
